<svg width="47" height="48" viewBox="0 0 47 48" fill="none" xmlns="http://www.w3.org/2000/svg">
<path fill-rule="evenodd" clip-rule="evenodd" d="M35.2499 2V10H45.0416L41.8104 43.06C41.6145 44.7 40.2633 46 38.6183 46H35.2499V42H37.972L40.7137 14H21.992L21.5416 10H31.3333V2H35.2499ZM16.6458 17.98C9.302 17.98 1.95825 22 1.95825 30H31.3333C31.3333 22 23.9895 17.98 16.6458 17.98ZM1.95825 43.96C1.95825 45.08 2.8395 45.98 3.93617 45.98H29.3749C30.4716 45.98 31.3528 45.08 31.3528 43.96V42H1.95825V43.96ZM16.6457 21.98C13.8845 21.98 9.26281 22.9 7.08906 26H26.2024C24.0287 22.9 19.407 21.98 16.6457 21.98ZM31.3333 34V38H1.95825V34H31.3333Z" fill="white"/>
</svg>
